<mxfile host="app.diagrams.net" modified="2021-05-23T09:59:13.263Z" agent="5.0 (Macintosh; Intel Mac OS X 10_15_6) AppleWebKit/605.1.15 (KHTML, like Gecko) Version/14.0.3 Safari/605.1.15" etag="MBkL74iyvyYGkza_884x" version="14.6.11" type="github">
  <diagram id="EgMsudFtV4niVU-k6e15" name="第 1 页">
    <mxGraphModel dx="946" dy="558" grid="1" gridSize="10" guides="1" tooltips="1" connect="1" arrows="1" fold="1" page="1" pageScale="1" pageWidth="827" pageHeight="1169" math="0" shadow="0">
      <root>
        <mxCell id="0" />
        <mxCell id="1" parent="0" />
        <mxCell id="l94Sj3DQFPUhyfKy8eer-7" value="第一步：&lt;br&gt;执行写命令" style="edgeStyle=orthogonalEdgeStyle;rounded=0;orthogonalLoop=1;jettySize=auto;html=1;fontSize=16;" edge="1" parent="1" source="l94Sj3DQFPUhyfKy8eer-1" target="l94Sj3DQFPUhyfKy8eer-6">
          <mxGeometry relative="1" as="geometry" />
        </mxCell>
        <mxCell id="l94Sj3DQFPUhyfKy8eer-10" value="第二步：&lt;br&gt;记录命令到日志" style="edgeStyle=orthogonalEdgeStyle;rounded=0;orthogonalLoop=1;jettySize=auto;html=1;fontSize=16;" edge="1" parent="1" source="l94Sj3DQFPUhyfKy8eer-1" target="l94Sj3DQFPUhyfKy8eer-9">
          <mxGeometry relative="1" as="geometry" />
        </mxCell>
        <mxCell id="l94Sj3DQFPUhyfKy8eer-1" value="Redis" style="rounded=1;whiteSpace=wrap;html=1;fontSize=16;" vertex="1" parent="1">
          <mxGeometry x="330" y="130" width="120" height="60" as="geometry" />
        </mxCell>
        <mxCell id="l94Sj3DQFPUhyfKy8eer-3" value="发送写命令" style="edgeStyle=orthogonalEdgeStyle;rounded=0;orthogonalLoop=1;jettySize=auto;html=1;fontSize=16;" edge="1" parent="1" source="l94Sj3DQFPUhyfKy8eer-2" target="l94Sj3DQFPUhyfKy8eer-1">
          <mxGeometry relative="1" as="geometry" />
        </mxCell>
        <mxCell id="l94Sj3DQFPUhyfKy8eer-2" value="客户端" style="ellipse;whiteSpace=wrap;html=1;aspect=fixed;fontSize=16;" vertex="1" parent="1">
          <mxGeometry x="120" y="120" width="80" height="80" as="geometry" />
        </mxCell>
        <mxCell id="l94Sj3DQFPUhyfKy8eer-6" value="内存" style="rounded=0;whiteSpace=wrap;html=1;fontSize=16;" vertex="1" parent="1">
          <mxGeometry x="330" y="280" width="120" height="60" as="geometry" />
        </mxCell>
        <mxCell id="l94Sj3DQFPUhyfKy8eer-9" value="硬盘" style="shape=cylinder3;whiteSpace=wrap;html=1;boundedLbl=1;backgroundOutline=1;size=15;fontSize=16;" vertex="1" parent="1">
          <mxGeometry x="610" y="125" width="110" height="70" as="geometry" />
        </mxCell>
      </root>
    </mxGraphModel>
  </diagram>
</mxfile>
